Coordinates
version=1
nRows=13
nColumns=36
inDegrees=yes

Units are S.I. units (second, meters, Newtons, ...)
If the header above contains a line with 'inDegrees', this indicates whether rotational values are in degrees (yes) or radians (no).

endheader
time	pelvis_tilt	pelvis_list	pelvis_rotation	pelvis_tx	pelvis_ty	pelvis_tz	hip_flexion_r	hip_adduction_r	hip_rotation_r	knee_angle_r	knee_angle_r_beta	ankle_angle_r	subtalar_angle_r	mtp_angle_r	hip_flexion_l	hip_adduction_l	hip_rotation_l	knee_angle_l	knee_angle_l_beta	ankle_angle_l	subtalar_angle_l	mtp_angle_l	lumbar_extension	lumbar_bending	lumbar_rotation	arm_flex_r	arm_add_r	arm_rot_r	elbow_flex_r	pro_sup_r	arm_flex_l	arm_add_l	arm_rot_l	elbow_flex_l	pro_sup_l
      4.36666670	      6.34338783	      4.72037493	     -2.18987175	      1.46419084	      0.94630566	     -0.04610506	     -6.13406797	      2.57223794	     10.96148165	     13.80668937	      0.24097219	     16.08500564	     -6.36939517	     -7.49999987	     18.57405001	     -2.64374016	     -4.64995626	     22.32328262	      0.38961478	     -8.34871699	     -1.79164933	     -7.49999987	     -9.37518586	     -0.86214490	      2.19766040	     51.70128347	     -1.78519150	     67.46760121	    123.66647542	     91.15406579	     54.29734494	     -0.68827828	     61.57365328	    115.84568927	    101.98826607
      4.38333330	      6.48079809	      4.41287537	     -2.34469506	      1.46413295	      0.94393079	     -0.04627250	     -6.79399455	      2.81383021	     11.34903620	     13.19139978	      0.23023336	     15.61407906	     -6.61714232	     -7.49999987	     17.33001645	     -2.82299048	     -4.10615699	     21.05479860	      0.36747556	     -7.85392501	     -1.62427823	     -7.49999987	     -8.91212118	     -0.55216661	      2.28313582	     51.57934062	     -2.04884600	     67.23973555	    123.76990314	     90.93514544	     53.96990021	     -0.49636210	     60.99406140	    115.54488686	    101.82176021
      4.40000000	      6.44555841	      4.13287449	     -2.38022341	      1.46423794	      0.94399086	     -0.04667251	     -7.17196378	      3.06544139	     11.68511718	     12.62206960	      0.22029667	     15.12369662	     -6.92900785	     -7.49999987	     16.62664659	     -3.00888343	     -3.61414053	     20.18058982	      0.35221774	     -7.43132323	     -1.58920343	     -7.49999987	     -8.47725423	     -0.25805201	      2.39787669	     51.33089175	     -2.69047455	     67.26537353	    124.07253123	     90.08171370	     53.61893581	     -0.24613388	     60.99197900	    115.69456505	    102.44205768
      4.41666670	      6.93092044	      3.92164885	     -2.59888889	      1.46888892	      0.94912137	     -0.04464675	     -8.14844485	      3.19343065	     12.12460706	     12.03231586	      0.21000353	     14.70385319	     -6.97576469	     -7.49999987	     15.20274879	     -3.13433173	     -3.20364319	     19.28675861	      0.33661744	     -6.76848720	     -1.36187089	     -7.49999987	     -8.49749568	     -0.07004208	      2.59508379	     50.81951834	     -2.90391001	     67.40042905	    123.26921797	     89.99367390	     52.92172839	     -0.34076703	     61.41091075	    115.34477356	    102.29782866
      4.43333330	      7.11914894	      3.70023064	     -2.70310052	      1.46896450	      0.94694991	     -0.04459138	     -8.63785151	      3.38240290	     12.36966426	     11.57259297	      0.20197985	     14.26355197	     -7.01852442	     -7.49999987	     14.30512954	     -3.29526401	     -2.81385462	     18.53725434	      0.32353612	     -6.19571991	     -1.11881369	     -7.49999987	     -8.34478449	      0.17478871	      2.73098991	     50.62390358	     -3.14996720	     67.55323219	    123.37533018	     87.58593883	     52.55705394	     -0.07852499	     61.78303160	    115.44609208	     99.72075005
      4.45000000	      7.08660248	      3.50739203	     -2.83533660	      1.46884939	      0.94617485	     -0.04491938	     -8.82743909	      3.54292286	     12.67667269	     11.22847744	      0.19597390	     13.84452937	     -7.12793712	     -7.49999987	     13.78763525	     -3.43818163	     -2.57286633	     17.87553990	      0.31198703	     -5.68434246	     -1.01705412	     -7.49999987	     -8.03414473	      0.44408790	      2.91337813	     50.49703742	     -3.34396586	     67.61298940	    123.47142551	     86.49750693	     52.29471999	      0.18203338	     61.86330112	    115.47254747	     99.41602897
      4.46666670	      7.36728629	      3.35090858	     -2.94497763	      1.46884891	      0.94630979	     -0.04513590	     -9.43949354	      3.64143563	     13.07045009	     10.74035585	      0.18745457	     13.48129937	     -7.27657223	     -7.49999987	     12.94477471	     -3.51387849	     -2.32951107	     17.12268910	      0.29884730	     -5.15135371	     -0.89300051	     -7.49999987	     -8.09046087	      0.57777611	      2.85946970	     50.39581303	     -3.52875031	     67.29094081	    123.03565424	     85.96341480	     52.27421880	      0.14368607	     61.85458014	    115.17038357	     99.77403258
      4.48333330	      7.08709433	      3.19897799	     -2.97144645	      1.47355669	      0.94796954	     -0.04360759	     -9.47458919	      3.77011040	     13.30177159	     10.31660668	      0.18005875	     13.35276755	     -7.18634622	     -7.49999987	     12.70029857	     -3.61898680	     -2.05198018	     16.49203413	      0.28784030	     -4.54538962	     -0.71790688	     -7.49999987	     -7.20959899	      0.79597732	      2.93113248	     49.40263770	     -3.51476909	     67.34517353	    123.16874038	     85.04683491	     51.16443463	     -0.12438688	     61.62551906	    114.80004501	     99.32220870
      4.50000000	      7.46603771	      3.10546991	     -3.00531861	      1.47332118	      0.94804229	     -0.04399731	    -10.23509617	      3.77570963	     13.48301350	      9.74756201	      0.17012705	     13.10732865	     -7.11341771	     -7.49999987	     11.71316932	     -3.63127766	     -1.84450628	     15.68365749	      0.27373146	     -4.16015889	     -0.40933655	     -7.49999987	     -7.40490509	      0.86346912	      2.96782291	     49.19851455	     -3.51493479	     67.45352858	    123.43917199	     84.47284822	     50.82831340	     -0.12354607	     61.46420242	    114.94881197	     99.34824130
      4.51666670	      7.73707319	      3.01704887	     -3.09023000	      1.47270087	      0.94326516	     -0.04408584	    -10.77700133	      3.80515501	     13.71728141	      9.30315142	      0.16237062	     12.90073362	     -7.07521499	     -7.49999987	     10.92134734	     -3.72841100	     -1.92316972	     14.94852500	      0.26090098	     -3.55612452	      0.37054715	     -7.49999987	     -7.48891957	      0.95826374	      2.88387459	     49.62392453	     -3.20931670	     67.40307109	    123.43308570	     84.18823409	     51.08468056	     -0.29339492	     61.29122767	    114.82384664	     97.03857384
      4.53333330	      7.77567443	      2.94699251	     -2.92151803	      1.47305103	      0.94565484	     -0.04494960	    -11.08404658	      3.81091083	     13.47303743	      8.87737566	      0.15493943	     13.02310428	     -6.55991942	     -7.49999987	     10.38303443	     -3.64559058	     -1.35183207	     14.20187489	      0.24786948	     -3.41687658	      0.00682978	     -7.49999987	     -7.36070586	      1.07511031	      2.38756471	     49.71757210	     -2.87761620	     67.75195989	    123.35170324	     86.42148661	     50.85104431	     -0.47747220	     60.80491027	    114.74013602	     99.29004649
      4.55000000	      7.86303510	      2.85925113	     -2.83931692	      1.47299170	      0.94804314	     -0.04502483	    -11.35642178	      3.85139473	     13.52009636	      8.58140411	      0.14977376	     12.85803013	     -6.58207599	     -7.49999987	      9.82254501	     -3.65735777	     -1.26367819	     13.57930235	      0.23700354	     -3.07085049	      0.34299078	     -7.49999987	     -7.42788457	      1.16939457	      2.29031925	     49.57298417	     -2.85036819	     68.16398192	    123.39499854	     86.68523710	     50.67832804	     -0.51289628	     60.82255181	    114.47058870	     99.56552872
      4.56666670	      7.95560033	      2.76060176	     -2.75167500	      1.47285746	      0.94551603	     -0.04562896	    -11.60038972	      3.90958362	     13.48676586	      8.34379908	      0.14562677	     12.78159159	     -6.42772132	     -7.49999987	      9.38379045	     -3.69882354	     -1.20100324	     13.12032467	      0.22899286	     -2.80607429	      0.61890331	     -7.49999987	     -7.49300663	      1.31370407	      2.18799633	     49.68387489	     -2.92173963	     68.03496483	    123.42954412	     84.50002660	     50.77446376	     -0.51489328	     60.80755054	    114.39981698	     97.38782867
